<?xml version="1.0" encoding="utf-8"?>
<!-- Generator: Adobe Illustrator 16.0.0, SVG Export Plug-In . SVG Version: 6.00 Build 0)  -->
<!DOCTYPE svg PUBLIC "-//W3C//DTD SVG 1.1//EN" "http://www.w3.org/Graphics/SVG/1.1/DTD/svg11.dtd">
<svg version="1.1" id="Layer_1" xmlns="http://www.w3.org/2000/svg" xmlns:xlink="http://www.w3.org/1999/xlink" x="0px" y="0px"
	 width="600px" height="600px" viewBox="0 0 600 600" enable-background="new 0 0 600 600" xml:space="preserve">
<path fill="#F2EA26" d="M436.774,292.234c-2.759-23.102-14.057-44.683-22.842-66.235c-9.842-24.148-16.786-49.78-7.146-74.947
	c0.236-0.617-3.228-0.626-3.48-0.603c-16.668,1.568-31.198,8.183-41.366,20.478c-9.481,11.464-13.37,26.083-13.51,40.29
	c-5.82-5.198-9.489-11.568-10.035-19.486c-0.623-9.051,2.714-18.188,5.552-26.733c3.128-9.424,6.329-18.861,6.995-28.745
	c0.655-9.745-2.555-19.414-7.616-27.932c-17.465-29.383-53.947-39.13-88.768-43.809c-0.655-0.31-1.323-0.605-1.995-0.896
	c0.008,0.923,0.015,1.87,0.021,2.834c8.003,4.199,14.641,10.103,17.755,18.502c4.197,11.317,0.913,23.945-3.4,34.792
	c-12.174,30.611-35.906,57.47-57.186,83.206c-10.063,12.171-20.312,24.245-29.711,36.855c-6.603,8.858-13.186,18.087-15.488,28.72
	c-3.349,15.464-2.735,32.042,5.548,46.177c6.718,11.463,18.225,19.66,31.218,24.674c23.683,9.137,51.737,8.17,76.179,2.266
	c24.532-5.926,47.94-18.207,63.737-36.461c1.45,10.699,0.273,21.461-4.623,31.469c-6.108,12.482-18.333,21.174-32.294,25.578
	c-0.164,0.051-0.569,0.287-0.277,0.48c18.039,11.99,39.3,18.828,61.779,17.406c20.693-1.311,39.331-10.779,52.168-25.455
	C433.152,337.324,439.374,314.021,436.774,292.234z"/>
<text transform="matrix(1 0 0 1 154.5879 515.5449)" fill="#FFFFFF" font-family="'ArialMT'" font-size="249">&gt;&lt;</text>
</svg>
