<?xml version="1.0" encoding="utf-8"?>
<!-- Generator: Adobe Illustrator 16.0.0, SVG Export Plug-In . SVG Version: 6.00 Build 0)  -->
<!DOCTYPE svg PUBLIC "-//W3C//DTD SVG 1.1//EN" "http://www.w3.org/Graphics/SVG/1.1/DTD/svg11.dtd">
<svg version="1.1" id="Layer_1" xmlns="http://www.w3.org/2000/svg" xmlns:xlink="http://www.w3.org/1999/xlink" x="0px" y="0px"
	 width="600px" height="600px" viewBox="0 0 600 600" enable-background="new 0 0 600 600" xml:space="preserve">
<g id="Layer_5">
	<g>
		
			<text transform="matrix(1.5 0 0 1 147.5696 495.3584)" fill="#FFFFFF" font-family="'RobotoCondensed-Light'" font-size="232.848" letter-spacing="-1.333">&gt;&lt;</text>
		
			<text transform="matrix(1.5 0 0 1 147.5696 495.3584)" fill="none" stroke="#FFFFFF" stroke-width="16.66" stroke-miterlimit="10" font-family="'RobotoCondensed-Light'" font-size="232.848" letter-spacing="-1.333">&gt;&lt;</text>
		<path fill="currentColor" d="M419.915,292.251c-4.831-10.361-10.444-20.338-15.893-30.384c-8.489-15.665-17.903-31.87-23.61-49.18
			l-1.58-4.5c-0.008-0.017-6.115-22.826-6.457-24.779c-0.416-2.364-0.816-4.733-1.22-7.096c-0.883-3.599-2.135-11.26-2.176-11.447
			c0.004,0.014,0.025,0.024,0.06,0.033c-1.072-8.77-0.838-17.705,1.293-26.783c0.146-0.626-2.924-0.313-3.146-0.266
			c-14.608,3.079-26.805,10.881-34.553,23.81c-2.217,3.694-3.922,7.63-5.195,11.708c-0.297,0.193-0.602,0.383-0.895,0.579
			c-0.521-9.184-1.062-19.337-1.179-21.977c-0.418-9.56-4.252-18.683-9.61-26.516c-18.481-27.011-84.792-33.299-84.688-32.358
			c7.52,3.347,14.01,8.485,17.627,16.381c4.878,10.639,3.261,23.253,0.552,34.223c-7.649,30.97-25.93,59.356-42.146,86.423
			c-7.67,12.799-15.513,25.522-22.547,38.687c-4.943,9.25-9.831,18.855-10.784,29.43c-1.381,15.388,0.858,31.487,9.646,44.494
			c6.091,9.008,15.032,15.358,25.007,19.315c10.121,5.287,57.9,25.578,97.174-37.854c5.154-6.765,9.389-14.334,11.988-22.729
			c2.86,2.89,5.381,5.98,6.938,9.354c1.676,3.633,2.209,7.327,2.638,11.172c0.526,4.698,1.553,9.54,1.086,14.318
			c-0.685,7.013-4.808,13.789-11.132,19.679c-2.284,2.127-4.778,4.146-7.407,6.088c3.33,1.771,11.938,5.369,12.772,5.639
			c18.041,5.795,39.931,7.885,60.437,1.82c11.248-3.33,21.973-9.23,29.594-17.922c9.396-10.728,13.25-23.73,13.762-36.049
			C426.616,307.095,423.314,299.528,419.915,292.251z"/>
	</g>
	<text transform="matrix(1 0 0 1 290.9446 418.7207)" fill="currentColor" font-family="'MyriadPro-Regular'" font-size="12"> </text>
	<text transform="matrix(1 0 0 1 290.9446 418.7207)" fill="currentColor" font-family="'MyriadPro-Regular'" font-size="12"> </text>
</g>
</svg>
