<?xml version="1.0" encoding="utf-8"?>
<!-- Generator: Adobe Illustrator 16.0.0, SVG Export Plug-In . SVG Version: 6.00 Build 0)  -->
<!DOCTYPE svg PUBLIC "-//W3C//DTD SVG 1.1//EN" "http://www.w3.org/Graphics/SVG/1.1/DTD/svg11.dtd">
<svg version="1.1" id="Layer_1" xmlns="http://www.w3.org/2000/svg" xmlns:xlink="http://www.w3.org/1999/xlink" viewBox="0 0 1000 212" xml:space="preserve">
<g>	
		<text transform="matrix(1.5 0 0 1 87.2844 175.4844)" fill="none" stroke="currentColor" stroke-width="5.712" stroke-miterlimit="10" font-family="'RobotoCondensed-Light'" font-size="79.8336">&gt;&lt;</text>
	<path fill="currentColor" d="M180.66,105.849c-1.657-3.553-3.581-6.974-5.449-10.418c-2.911-5.371-6.14-10.927-8.096-16.862
		c0,0-0.543-1.542-0.543-1.543c-0.002-0.005-2.097-7.826-2.214-8.496c-0.142-0.812-0.279-1.623-0.418-2.433
		c-0.302-1.234-0.73-3.86-0.745-3.924c0,0.004,0.009,0.008,0.021,0.011c-0.368-3.007-0.287-6.07,0.443-9.183
		c0.05-0.215-1.004-0.108-1.079-0.091c-5.01,1.056-9.191,3.73-11.848,8.163c-0.76,1.267-1.344,2.616-1.78,4.015
		c-0.103,0.066-0.206,0.131-0.308,0.198c-0.178-3.148-0.364-6.629-0.403-7.535c-0.144-3.278-1.458-6.406-3.296-9.091
		c-6.336-9.261-29.07-11.417-29.035-11.094c2.577,1.148,4.803,2.91,6.044,5.617c1.672,3.647,1.116,7.972,0.188,11.733
		c-2.623,10.618-8.89,20.351-14.45,29.63c-2.629,4.388-5.318,8.75-7.729,13.264c-1.695,3.171-3.371,6.464-3.698,10.09
		c-0.473,5.275,0.295,10.795,3.308,15.254c2.089,3.089,5.154,5.268,8.574,6.623c3.471,1.812,19.853,8.771,33.317-12.979
		c1.768-2.318,3.219-4.915,4.11-7.793c0.98,0.991,1.845,2.051,2.379,3.207c0.574,1.246,0.758,2.512,0.904,3.831
		c0.182,1.61,0.532,3.271,0.372,4.91c-0.233,2.403-1.647,4.728-3.815,6.747c-0.784,0.729-1.639,1.421-2.54,2.086
		c1.142,0.607,4.093,1.84,4.38,1.934c6.185,1.986,13.689,2.703,20.72,0.623c3.857-1.141,7.534-3.164,10.146-6.144
		c3.222-3.679,4.543-8.138,4.718-12.36C182.958,110.938,181.825,108.344,180.66,105.849z"/>
</g>
</svg>
